#!OML:ASF X:\für Bonn\!DataBase\2005_08_12_Daniel\c3d\Daniel.ASF
:FULLY-SPECIFIED
:DEGREES
46
root 10.044 16.0767 -0.0255908 153.8 -107.605 -157.021
lowerback 4.75519 -10.633 -7.1628
upperback 0.65292 -14.665 -3.54924
thorax -1.10964 -7.32265 0.900269
lowerneck 3.06005 6.7793 1.61311
upperneck 8.70481 9.16906 -4.64452
head 2.57047 4.40786 -1.62776
rclavicle -1.57313e-013 -2.8625e-014
rhumerus -60.9941 -27.0828 -56.8783
rradius 12.9326
rwrist 47.0967
rhand -6.82433 12.0327
rfingers 7.12502
rthumb 19.0398 -17.0554
lclavicle -1.57313e-013 -2.8625e-014
lhumerus -28.8103 11.4111 82.742
lradius 50.689
lwrist -3.5476
lhand -18.8286 -12.0336
lfingers 7.12502
lthumb 7.47059 17.8145
rfemur -42.4477 -3.832 8.02002
rtibia 47.8138
rfoot -6.46989 -4.33952
rtoes -8.7634
lfemur 18.4559 -10.0408 -27.7339
ltibia 32.4462
lfoot -37.3063 -6.07413
ltoes -10.7321
47
root 9.88452 16.0556 -0.0479857 154.376 -107.453 -157.713
lowerback 4.84635 -10.7286 -6.77392
upperback 0.53665 -14.784 -3.45013
thorax -1.34224 -7.37284 0.849469
lowerneck 2.8663 6.88805 1.66629
upperneck 8.82373 9.32955 -4.78266
head 2.66282 4.4805 -1.66982
rclavicle 4.07819e-014 1.39149e-014
rhumerus -61.2151 -27.6541 -55.6355
rradius 12.9768
rwrist 47.8143
rhand -7.01432 12.0384
rfingers 7.12502
rthumb 18.857 -17.0676
lclavicle 4.07819e-014 1.39149e-014
lhumerus -29.3476 11.7123 82.6484
lradius 49.8451
lwrist -5.18126
lhand -18.5404 -11.5327
lfingers 7.12502
lthumb 7.74875 18.3054
rfemur -42.6681 -4.28762 8.66285
rtibia 48.9958
rfoot -6.43795 -3.86849
rtoes -8.51425
lfemur 18.5186 -9.60186 -26.9632
ltibia 33.2064
lfoot -36.8054 -6.74671
ltoes -10.629
48
root 9.72219 16.0359 -0.0702321 154.937 -107.288 -158.465
lowerback 5.01435 -10.8395 -6.43332
upperback 0.403079 -14.9302 -3.3105
thorax -1.61168 -7.43471 0.880354
lowerneck 2.62788 7.02582 1.72644
upperneck 9.02897 9.53337 -4.95416
head 2.79761 4.57042 -1.72002
rclavicle 1.62258e-014 -1.59028e-015
rhumerus -61.3381 -28.0365 -54.5426
rradius 13.1358
rwrist 48.264
rhand -7.13032 12.0964
rfingers 7.12502
rthumb 18.7455 -17.0204
lclavicle 1.62258e-014 -1.59028e-015
lhumerus -29.8516 12.2666 82.5019
lradius 48.7654
lwrist -7.13727
lhand -18.0834 -11.1002
lfingers 7.12502
lthumb 8.18987 18.7211
rfemur -42.7581 -4.63469 9.29952
rtibia 50.1303
rfoot -6.51035 -3.49717
rtoes -7.5002
lfemur 18.5451 -9.15379 -26.1775
ltibia 34.1462
lfoot -36.1229 -7.41044
ltoes -10.6616
49
root 9.56023 16.0174 -0.0926076 155.533 -107.102 -159.236
lowerback 5.14569 -10.929 -6.0737
upperback 0.257175 -15.0426 -3.17033
thorax -1.88102 -7.48041 0.897047
lowerneck 2.45057 7.15126 1.76966
upperneck 9.2398 9.71923 -5.11825
head 2.92245 4.65065 -1.76723
rclavicle -1.19171e-013 -6.55989e-015
rhumerus -61.2785 -28.1552 -53.9295
rradius 13.4174
rwrist 48.1425
rhand -7.23645 12.1073
rfingers 7.12502
rthumb 18.6434 -17.0193
lclavicle -1.19171e-013 -6.55989e-015
lhumerus -30.3685 12.8691 82.3086
lradius 47.5738
lwrist -9.18047
lhand -17.4002 -10.6968
lfingers 7.12502
lthumb 8.84912 19.0977
rfemur -42.8006 -4.90247 9.93882
rtibia 51.1874
rfoot -6.66768 -3.21615
rtoes -6.39842
lfemur 18.4169 -8.73449 -25.3962
ltibia 35.3102
lfoot -35.2539 -8.04403
ltoes -10.8933
50
root 9.39901 16.0056 -0.113988 156.13 -106.9 -160.003
lowerback 5.18962 -11.0136 -5.68029
upperback 0.154912 -15.1359 -3.04403
thorax -2.07083 -7.52135 0.860301
lowerneck 2.29807 7.27814 1.72533
upperneck 9.39233 9.90277 -5.24285
head 3.01584 4.72922 -1.78804
rclavicle 1.93622e-013 2.42517e-014
rhumerus -61.0131 -28.1514 -53.674
rradius 13.7838
rwrist 47.6992
rhand -7.30553 12.1182
rfingers 7.12502
rthumb 18.577 -17.0148
lclavicle 1.93622e-013 2.42517e-014
lhumerus -30.7716 13.6561 82.0508
lradius 46.2081
lwrist -11.3955
lhand -16.5525 -10.4154
lfingers 7.12502
lthumb 9.66716 19.3427
rfemur -42.7478 -5.12599 10.5752
rtibia 52.12
rfoot -6.92573 -2.95148
rtoes -5.56677
lfemur 18.0946 -8.28398 -24.6045
ltibia 36.7391
lfoot -34.1582 -8.61653
ltoes -11.0816
51
root 9.24056 16.001 -0.133978 156.731 -106.682 -160.767
lowerback 5.11987 -11.077 -5.21923
upperback 0.131521 -15.1858 -2.96571
thorax -2.14893 -7.54777 0.709921
lowerneck 2.06815 7.38892 1.61765
upperneck 9.55439 10.0614 -5.27975
head 3.11606 4.79472 -1.76674
rclavicle -1.38217e-013 -1.39149e-015
rhumerus -60.5787 -28.1571 -53.7458
rradius 14.2195
rwrist 47.0484
rhand -7.38343 12.0415
rfingers 7.12502
rthumb 18.502 -17.0986
lclavicle -1.38217e-013 -1.39149e-015
lhumerus -31.1038 14.5097 81.7034
lradius 44.7813
lwrist -13.6317
lhand -15.55 -10.3623
lfingers 7.12502
lthumb 10.6342 19.3487
rfemur -42.5814 -5.28898 11.2025
rtibia 52.8868
rfoot -7.25936 -2.69889
rtoes -5.16014
lfemur 17.562 -7.9056 -23.8735
ltibia 38.4838
lfoot -32.7528 -9.05041
ltoes -11.2235
52
root 9.08485 16.005 -0.152672 157.264 -106.437 -161.469
lowerback 5.05975 -11.0933 -4.73379
upperback 0.101081 -15.1756 -2.92476
thorax -2.25878 -7.54445 0.513125
lowerneck 1.91981 7.46624 1.57765
upperneck 9.73319 10.1751 -5.32719
head 3.2106 4.84001 -1.76434
rclavicle -2.94263e-014 -1.72943e-014
rhumerus -60.0734 -27.9741 -54.2101
rradius 14.7633
rwrist 46.0199
rhand -7.53546 11.8393
rfingers 7.12502
rthumb 18.3558 -17.3146
lclavicle -2.94263e-014 -1.72943e-014
lhumerus -31.6884 15.3575 81.2904
lradius 43.6304
lwrist -15.8103
lhand -14.5224 -10.2751
lfingers 7.12502
lthumb 11.6253 19.3824
rfemur -42.2797 -5.38353 11.8025
rtibia 53.4617
rfoot -7.62001 -2.44728
rtoes -4.87147
lfemur 16.8049 -7.55417 -23.2223
ltibia 40.578
lfoot -30.9056 -9.28095
ltoes -11.6996
53
root 8.93366 16.0186 -0.169398 157.801 -106.186 -162.181
lowerback 5.04358 -11.0873 -4.28588
upperback 0.080605 -15.1399 -2.87308
thorax -2.37059 -7.52817 0.350801
lowerneck 1.79755 7.51685 1.64595
upperneck 9.8944 10.2584 -5.45449
head 3.30598 4.87237 -1.80856
rclavicle 5.81818e-014 3.61788e-014
rhumerus -59.4398 -27.7495 -54.8538
rradius 15.3461
rwrist 44.9657
rhand -7.77455 11.5081
rfingers 7.12502
rthumb 18.1258 -17.6673
lclavicle 5.81818e-014 3.61788e-014
lhumerus -32.2651 16.3242 80.836
lradius 42.4009
lwrist -17.9059
lhand -13.6795 -10.3254
lfingers 7.12502
lthumb 12.4382 19.2845
rfemur -41.8414 -5.45278 12.3861
rtibia 53.831
rfoot -7.96412 -2.17973
rtoes -4.64197
lfemur 15.7974 -7.30582 -22.6722
ltibia 43.0661
lfoot -28.6302 -9.32069
ltoes -12.4949
54
root 8.78901 16.0402 -0.184923 158.28 -105.913 -162.844
lowerback 5.12731 -11.0644 -3.88605
upperback 0.0538097 -15.0907 -2.82367
thorax -2.53223 -7.50336 0.229849
lowerneck 1.66165 7.5649 1.83591
upperneck 10.1066 10.3439 -5.63666
head 3.43438 4.9067 -1.89055
rclavicle 1.66482e-014 3.16068e-014
rhumerus -58.5841 -27.2748 -55.958
rradius 15.9632
rwrist 43.5735
rhand -8.13434 11.0008
rfingers 7.12502
rthumb 17.7796 -18.2064
lclavicle 1.66482e-014 3.16068e-014
lhumerus -32.8752 17.3628 80.2935
lradius 41.1495
lwrist -19.7483
lhand -13.1034 -10.3456
lfingers 7.12502
lthumb 12.9935 19.2298
rfemur -41.2818 -5.43548 12.9318
rtibia 54.0029
rfoot -8.33938 -1.98533
rtoes -4.62393
lfemur 14.5044 -7.08749 -22.2027
ltibia 45.9689
lfoot -25.9509 -9.20581
ltoes -13.3603
55
root 8.65246 16.0681 -0.199993 158.905 -105.599 -163.691
lowerback 5.30632 -11.0236 -3.417
upperback 0.0330745 -15.0174 -2.77603
thorax -2.75749 -7.4663 0.0919376
lowerneck 1.54362 7.6032 2.03559
upperneck 10.3124 10.4164 -5.82542
head 3.55895 4.93486 -1.97806
rclavicle 2.64694e-014 3.57812e-015
rhumerus -57.6803 -26.7549 -57.1673
rradius 16.6149
rwrist 42.2687
rhand -8.62191 10.5041
rfingers 7.12502
rthumb 17.3104 -18.745
lclavicle 2.64694e-014 3.57812e-015
lhumerus -33.5273 18.4815 79.6494
lradius 39.855
lwrist -21.405
lhand -12.8827 -10.4074
lfingers 7.12502
lthumb 13.2063 19.1543
rfemur -40.5872 -5.3477 13.5137
rtibia 53.9865
rfoot -8.7015 -1.81605
rtoes -4.68118
lfemur 12.9005 -6.88673 -21.7273
ltibia 49.284
lfoot -22.704 -8.89613
ltoes -13.928
